<svg width="200" height="200" viewBox="0 0 200 200" fill="none" xmlns="http://www.w3.org/2000/svg">
<path d="M102.718 133.332C99.5564 138.692 96.7801 143.551 93.8494 148.294C79.1962 172.163 41.4836 171.855 27.7559 147.638C21.3933 136.456 21.3548 124.926 28.1415 113.897C41.445 92.3419 54.8257 70.8249 68.4763 49.5006C77.6924 35.1174 95.9317 25.9399 113.13 30.9914C123.117 33.922 130.097 40.3617 135.033 49.2307C147.758 72.0974 160.483 94.9255 173.054 117.869C181.768 133.795 175.56 152.69 159.249 160.672C148.298 166.032 137.153 167.844 125.778 161.944C119.531 158.705 114.711 153.885 111.163 147.87C108.387 143.281 105.765 138.577 102.718 133.332ZM73.1422 61.6859C73.1036 67.0459 74.8774 71.866 77.4996 76.4162C90.4175 99.1286 103.297 121.88 116.253 144.592C125.045 159.978 142.359 164.412 157.514 155.273C169.429 148.063 174.211 133.564 167.771 121.841C154.622 97.9332 141.549 73.9483 127.513 50.5803C113.516 27.2895 88.7208 34.7318 77.9237 47.8425C74.6075 51.8528 73.0265 56.5187 73.1422 61.6859Z" fill="#5F84E0"/>
</svg>
