<svg width="200" height="200" viewBox="0 0 200 200" fill="none" xmlns="http://www.w3.org/2000/svg">
<path d="M117.055 109.987C117.055 113.848 113.948 116.956 110.086 116.956H88.803C84.9418 116.956 81.834 113.848 81.834 109.987V88.7032C81.834 84.842 84.9418 81.7342 88.803 81.7342H110.086C113.948 81.7342 117.055 84.842 117.055 88.7032V109.987ZM181.565 80.2274L145.967 32.1042C144.554 30.0324 142.671 28.9023 140.787 28.8081V127.126C140.787 135.225 134.195 141.818 126.096 141.818H82.2107V171.2H126.19C150.487 171.2 170.17 151.518 170.264 127.126V88.3265H177.327C182.695 88.3265 184.579 84.7478 181.565 80.2274ZM57.3487 103.771V72.8818C57.3487 64.7828 63.9409 58.1906 72.0399 58.1906H128.45V28.9023H71.9457C47.6487 28.9023 27.9662 48.5848 27.872 72.976V111.776H20.7147C15.3468 111.776 13.3691 115.449 16.4769 119.875L52.169 167.81C53.5817 169.882 55.371 171.012 57.3487 171.106V103.771Z" fill="black"/>
</svg>
