<svg xmlns="http://www.w3.org/2000/svg" viewBox="0 0 48.71 99.19"><defs><style>.cls-1{isolation:isolate;}.cls-2{fill:#0d15cc;}.cls-3{fill:#242bd1;}.cls-4{fill:#00069e;}.cls-5{fill:#7893ff;}.cls-6{fill:#4e72ff;}.cls-15,.cls-7{fill:none;stroke-miterlimit:10;}.cls-7{stroke:#8069ff;}.cls-20,.cls-8{fill:#3615eb;}.cls-12,.cls-9{fill:#fff;}.cls-9{mix-blend-mode:overlay;}.cls-10{fill:#3c1cec;}.cls-11{fill:#b5c4ff;}.cls-13,.cls-14{fill:#0007b8;}.cls-13{opacity:0.39;}.cls-13,.cls-19,.cls-20{mix-blend-mode:multiply;}.cls-15{stroke:#b5c4ff;}.cls-16,.cls-19{fill:#696eff;}.cls-17{fill:#a3a6ff;}.cls-18{fill:#6159ff;}.cls-19{opacity:0.16;}.cls-20{opacity:0.6;}</style></defs><title>Asset 4</title><g class="cls-1"><g id="Layer_2" data-name="Layer 2"><g id="Layer_38" data-name="Layer 38"><rect class="cls-2" x="2.01" y="51.37" width="38.37" height="41.95"/><rect class="cls-3" y="42.46" width="42.13" height="9.11"/><rect class="cls-4" x="33.72" y="42.46" width="8.41" height="9.11"/><rect class="cls-4" x="31.97" y="51.57" width="8.41" height="41.75"/><rect class="cls-5" x="12.81" y="42.46" width="5.08" height="9.11"/><rect class="cls-5" x="37.93" y="42.46" width="1.87" height="9.11"/><rect class="cls-6" x="15.35" y="51.57" width="4.59" height="41.75"/><rect class="cls-6" x="35.45" y="51.57" width="2.85" height="41.75"/><path class="cls-7" d="M29.31,3C31,2.73,33,1.1,34.57.62a3,3,0,0,1,3,.78,2.28,2.28,0,0,1,0,3,4,4,0,0,1-2.94.82l-5.34,0Z"/><path class="cls-7" d="M26.48,3C24.82,2.73,22.85,1.1,21.23.62a3,3,0,0,0-3,.78,2.28,2.28,0,0,0,0,3,4,4,0,0,0,2.94.82l5.33,0Z"/><rect class="cls-8" x="25.79" y="2.12" width="4.3" height="3.75"/><rect class="cls-8" x="9.15" y="14.77" width="37.84" height="27.7"/><rect class="cls-8" x="7.16" y="6.14" width="41.55" height="8.82"/><rect class="cls-9" x="17.07" y="6.14" width="31.64" height="8.82"/><rect class="cls-10" x="19.48" y="14.96" width="27.5" height="27.5"/><rect class="cls-11" x="34.6" y="6.14" width="2.18" height="8.82"/><rect class="cls-11" x="12.06" y="6.14" width="2.18" height="8.82"/><rect class="cls-12" x="32.65" y="14.96" width="2.2" height="27.5"/><rect class="cls-5" x="11.42" y="14.96" width="2.2" height="27.5"/><rect class="cls-5" x="9.15" y="28.17" width="10.34" height="2.09"/><rect class="cls-12" x="19.3" y="28.17" width="27.68" height="2.09"/><rect class="cls-13" x="2.01" y="51.62" width="38.37" height="2.31"/><rect class="cls-14" x="9.15" y="41.8" width="32.98" height="0.67"/><path class="cls-15" d="M29.21,71.14c1.2-.19,2.61-1.35,3.77-1.7a2.11,2.11,0,0,1,2.15.56,1.64,1.64,0,0,1,0,2.14,2.85,2.85,0,0,1-2.11.58l-3.83,0Z"/><path class="cls-15" d="M27.19,71.14c-1.19-.19-2.61-1.35-3.77-1.7a2.11,2.11,0,0,0-2.15.56,1.63,1.63,0,0,0,0,2.14,2.83,2.83,0,0,0,2.1.58l3.83,0Z"/><rect class="cls-5" x="26.69" y="70.51" width="3.08" height="2.69"/><rect class="cls-16" x="14.41" y="79.34" width="27.11" height="19.85"/><rect class="cls-17" x="12.98" y="73.16" width="29.77" height="6.32"/><rect class="cls-18" x="36.81" y="73.16" width="5.94" height="6.32"/><rect class="cls-18" x="35.58" y="79.49" width="5.94" height="19.71"/><rect class="cls-11" x="22.32" y="73.16" width="3.31" height="6.32"/><rect class="cls-11" x="39.01" y="73.16" width="1.56" height="6.32"/><rect class="cls-5" x="24.25" y="79.49" width="2.82" height="19.71"/><rect class="cls-5" x="38.49" y="79.49" width="1.57" height="19.71"/><rect class="cls-19" x="14.41" y="79.49" width="27.11" height="1.41"/><rect class="cls-20" x="9.15" y="14.96" width="37.84" height="1.54"/></g></g></g></svg>