<svg xmlns="http://www.w3.org/2000/svg" viewBox="0 0 198.53 167.17"><defs><style>.cls-1{isolation:isolate;}.cls-2{fill:#0d15cc;}.cls-26,.cls-3{fill:#242bd1;}.cls-4{fill:#00069e;}.cls-5{fill:#7893ff;}.cls-6{fill:#4e72ff;}.cls-7{fill:#3d44d6;}.cls-8{fill:#4d52d9;}.cls-9{fill:#7a7ef0;}.cls-10,.cls-12,.cls-21,.cls-33{fill:none;}.cls-10{stroke:#787dff;stroke-linecap:round;stroke-linejoin:round;}.cls-10,.cls-12,.cls-33{stroke-width:2px;}.cls-11,.cls-35{fill:#3615eb;}.cls-12{stroke:#8069ff;}.cls-12,.cls-21,.cls-33{stroke-miterlimit:10;}.cls-13{fill:#fff;mix-blend-mode:overlay;}.cls-14{fill:#3c1cec;}.cls-15{fill:#b5c4ff;}.cls-16{fill:#a8b9ff;}.cls-17,.cls-18{fill:#0007b8;}.cls-17{opacity:0.39;}.cls-17,.cls-25,.cls-26,.cls-34,.cls-35{mix-blend-mode:multiply;}.cls-19{fill:#27006b;}.cls-19,.cls-20{opacity:0.4;}.cls-20{fill:#250080;}.cls-21{stroke:#b5c4ff;}.cls-22,.cls-25{fill:#696eff;}.cls-23{fill:#a3a6ff;}.cls-24{fill:#6159ff;}.cls-25{opacity:0.16;}.cls-26{opacity:0.65;}.cls-27{fill:#738fff;}.cls-28{fill:#d1daff;}.cls-29,.cls-34{fill:#5373f5;}.cls-30{fill:#5333ff;}.cls-31{fill:#4125e3;}.cls-32{fill:#3f24db;}.cls-33{stroke:#9499ff;}.cls-34{opacity:0.51;}.cls-35{opacity:0.6;}</style></defs><title>modal-gifts</title><g class="cls-1"><g id="Layer_2" data-name="Layer 2"><g id="gifts"><rect class="cls-2" x="3.39" y="86.65" width="64.6" height="70.64"/><rect class="cls-3" y="71.66" width="70.94" height="15.33"/><rect class="cls-4" x="56.77" y="71.66" width="14.16" height="15.33"/><rect class="cls-4" x="53.83" y="86.99" width="14.16" height="70.3"/><rect class="cls-5" x="21.57" y="71.66" width="8.56" height="15.33"/><rect class="cls-5" x="63.86" y="71.66" width="3.15" height="15.33"/><rect class="cls-6" x="25.85" y="86.99" width="7.72" height="70.3"/><rect class="cls-6" x="59.68" y="86.99" width="4.8" height="70.3"/><rect class="cls-3" x="122.15" y="38.14" width="76.39" height="124.59" rx="2"/><path class="cls-4" d="M155.88,38.14H125.64a3.5,3.5,0,0,0-3.49,3.5V159.23a3.5,3.5,0,0,0,3.49,3.5h30.24Z"/><rect class="cls-7" x="134.07" y="38.14" width="9.02" height="123.91"/><rect class="cls-8" x="122.15" y="70.57" width="33.73" height="8.83"/><rect class="cls-9" x="155.88" y="70.57" width="42.65" height="8.83"/><rect class="cls-8" x="122.15" y="125.19" width="33.73" height="8.83"/><rect class="cls-9" x="155.88" y="125.19" width="42.65" height="8.83"/><rect class="cls-9" x="176.53" y="38.14" width="9.02" height="124.46"/><path class="cls-10" d="M167,32.5c3-.48,6.64-3.46,9.6-4.32a5.36,5.36,0,0,1,5.48,1.41,4.17,4.17,0,0,1,0,5.45c-1.32,1.37-3.45,1.47-5.36,1.48l-9.75.06Z"/><path class="cls-10" d="M161.86,32.5c-3-.48-6.64-3.46-9.59-4.32a5.38,5.38,0,0,0-5.49,1.41,4.17,4.17,0,0,0,0,5.45c1.33,1.37,3.46,1.47,5.37,1.48l9.74.06Z"/><rect class="cls-11" x="160.6" y="30.9" width="7.84" height="6.85"/><path class="cls-12" d="M55,5.2c2.81-.45,6.13-3.19,8.85-4A5,5,0,0,1,69,2.52a3.84,3.84,0,0,1,0,5C67.76,8.8,65.79,8.9,64,8.91L55,9Z"/><path class="cls-12" d="M50.29,5.2c-2.81-.45-6.13-3.19-8.85-4a5,5,0,0,0-5.06,1.31,3.84,3.84,0,0,0,0,5C37.57,8.8,39.54,8.9,41.3,8.91l9,.05Z"/><rect class="cls-11" x="49.12" y="3.72" width="7.23" height="6.32"/><rect class="cls-11" x="21.09" y="25.02" width="63.7" height="46.64"/><rect class="cls-11" x="17.75" y="10.5" width="69.96" height="14.86"/><rect class="cls-13" x="34.43" y="10.5" width="53.28" height="14.86"/><rect class="cls-14" x="38.5" y="25.35" width="46.3" height="46.3"/><rect class="cls-15" x="63.95" y="10.5" width="3.66" height="14.86"/><rect class="cls-15" x="26" y="10.5" width="3.66" height="14.86"/><rect class="cls-16" x="60.66" y="25.35" width="3.7" height="46.3"/><rect class="cls-5" x="24.92" y="25.35" width="3.7" height="46.3"/><rect class="cls-5" x="21.09" y="47.59" width="17.4" height="3.52"/><rect class="cls-16" x="38.2" y="47.59" width="46.6" height="3.52"/><rect class="cls-17" x="3.39" y="87.08" width="64.6" height="3.89"/><rect class="cls-18" x="21.09" y="70.53" width="49.84" height="1.12"/><rect class="cls-19" x="3.39" y="157.29" width="45.76" height="1.7"/><rect class="cls-20" x="151.61" y="162.6" width="45.76" height="1.18"/><path class="cls-21" d="M49.19,119.94c2-.32,4.39-2.28,6.34-2.86a3.57,3.57,0,0,1,3.63.94,2.77,2.77,0,0,1,0,3.6c-.88.9-2.29,1-3.55,1l-6.44,0Z"/><path class="cls-21" d="M45.78,119.94c-2-.32-4.39-2.28-6.34-2.86a3.57,3.57,0,0,0-3.63.94,2.77,2.77,0,0,0,0,3.6c.88.9,2.29,1,3.55,1l6.44,0Z"/><rect class="cls-5" x="44.94" y="118.88" width="5.18" height="4.53"/><rect class="cls-22" x="24.26" y="133.75" width="45.65" height="33.42"/><rect class="cls-23" x="21.86" y="123.34" width="50.13" height="10.65"/><rect class="cls-24" x="61.98" y="123.34" width="10.01" height="10.65"/><rect class="cls-24" x="59.9" y="133.99" width="10.01" height="33.18"/><rect class="cls-15" x="37.58" y="123.34" width="5.57" height="10.65"/><rect class="cls-15" x="65.67" y="123.34" width="2.63" height="10.65"/><rect class="cls-5" x="40.83" y="133.99" width="4.75" height="33.18"/><rect class="cls-5" x="64.81" y="133.99" width="2.65" height="33.18"/><rect class="cls-25" x="24.26" y="133.99" width="45.65" height="2.37"/><polygon class="cls-26" points="170.02 85.26 196.14 162.73 166.19 162.47 166.19 85.26 170.02 85.26"/><rect class="cls-27" x="82.23" y="104.4" width="83.96" height="61.46"/><rect class="cls-28" x="77.82" y="85.26" width="92.2" height="19.58"/><rect class="cls-29" x="151.61" y="85.26" width="18.41" height="19.58"/><rect class="cls-29" x="147.78" y="104.84" width="18.41" height="61.02"/><rect class="cls-30" x="110.12" y="85.26" width="8.91" height="19.58"/><rect class="cls-31" x="157.85" y="85.26" width="6.75" height="19.58"/><rect class="cls-30" x="114.59" y="104.84" width="8.86" height="61.02"/><rect class="cls-32" x="155.7" y="104.84" width="7.1" height="61.02"/><path class="cls-33" d="M125.5,78.22c4.38-.7,9.56-5,13.83-6.23a7.76,7.76,0,0,1,7.9,2,6,6,0,0,1,.05,7.85c-1.91,2-5,2.12-7.73,2.14l-14.05.08Z"/><path class="cls-33" d="M118.06,78.22c-4.39-.7-9.57-5-13.83-6.23a7.78,7.78,0,0,0-7.91,2,6,6,0,0,0,0,7.85c1.91,2,5,2.12,7.73,2.14l14,.08Z"/><rect class="cls-11" x="116.24" y="75.91" width="11.31" height="9.88"/><rect class="cls-34" x="82.23" y="104.94" width="83.96" height="4.15"/><rect class="cls-35" x="21.09" y="25.35" width="63.7" height="2.59"/></g></g></g></svg>