<svg width="200" height="200" viewBox="0 0 200 200" fill="none" xmlns="http://www.w3.org/2000/svg">
<path d="M87.421 59.4509C92.2587 54.4104 98.9937 51.2841 106.442 51.2841C116.344 51.2841 124.983 56.8054 129.583 65.002C133.581 63.2158 138.007 62.2221 142.662 62.2221C160.521 62.2221 175 76.8269 175 94.8417C175 112.859 160.521 127.464 142.662 127.464C140.523 127.465 138.39 127.252 136.293 126.829C132.242 134.055 124.521 138.938 115.66 138.938C111.951 138.938 108.442 138.081 105.318 136.558C101.212 146.218 91.6432 152.991 80.4914 152.991C68.8782 152.991 58.9808 145.643 55.1817 135.337C53.5215 135.69 51.8014 135.874 50.0363 135.874C36.2095 135.874 25 124.549 25 110.577C25 101.214 30.0363 93.0383 37.5192 88.6644C35.9787 85.1197 35.1218 81.2072 35.1218 77.0938C35.1218 61.0255 48.1667 48 64.2565 48C73.703 48 82.0983 52.4914 87.421 59.4509Z" fill="#00A1E0"/>
</svg>
