<svg width="40" height="40" viewBox="0 0 40 40" fill="none" xmlns="http://www.w3.org/2000/svg">
    <circle cx="20" cy="20" r="20" fill="#002946"/>
    <path d="M13.4172 30.9896H26.666L27.1279 26.7334L29.0914 9.88563C29.1504 9.38062 29.5781 9 30.0861 9H32.1388" stroke="#B1C3E9" stroke-width="1.13987" stroke-linecap="round"/>
    <path d="M12.227 12.2317H27.4775C28.1847 12.2317 28.7338 12.8477 28.6526 13.5505L27.3273 25.0126C27.2139 25.9934 26.3832 26.7333 25.396 26.7333H14.3522C13.3679 26.7333 12.5388 25.9973 12.4218 25.02L11.0525 13.5549C10.9682 12.8512 11.5179 12.2317 12.227 12.2317Z" fill="white" stroke="#B1C3E9" stroke-width="1.13987"/>
    <path d="M22.7463 20.4175C22.62 20.4175 22.5174 20.5201 22.5174 20.6464V21.9925H21.1713C21.045 21.9925 20.9424 22.0951 20.9424 22.2214C20.9424 22.3478 21.045 22.4504 21.1713 22.4504H22.5174V23.7964C22.5174 23.9228 22.62 24.0254 22.7463 24.0254C22.8727 24.0254 22.9753 23.9228 22.9753 23.7964V22.4504H24.3214C24.4477 22.4504 24.5503 22.3478 24.5503 22.2214C24.5503 22.0951 24.4477 21.9925 24.3214 21.9925H22.9753V20.6464C22.9753 20.5201 22.8727 20.4175 22.7463 20.4175Z" fill="#B1C3E9" stroke="#B1C3E9" stroke-width="0.0322137"/>
    <path d="M20.5112 14.6894C20.5112 14.4817 20.6797 14.3132 20.8874 14.3132H24.647C24.8546 14.3132 25.0231 14.4817 25.0231 14.6894V18.449C25.0231 18.6566 24.8546 18.8251 24.647 18.8251H20.8874C20.6797 18.8251 20.5112 18.6566 20.5112 18.449V14.6894Z" fill="#FF6100"/>
    <path d="M14.708 14.6894C14.708 14.4817 14.8765 14.3132 15.0842 14.3132H18.8438C19.0514 14.3132 19.2199 14.4817 19.2199 14.6894V18.449C19.2199 18.6566 19.0514 18.8251 18.8438 18.8251H15.0842C14.8765 18.8251 14.708 18.6566 14.708 18.449V14.6894Z" fill="#0099FF"/>
    <path d="M14.708 20.4929C14.708 20.2852 14.8765 20.1167 15.0842 20.1167H18.8438C19.0514 20.1167 19.2199 20.2852 19.2199 20.4929V24.2524C19.2199 24.4601 19.0514 24.6286 18.8438 24.6286H15.0842C14.8765 24.6286 14.708 24.4601 14.708 24.2524V20.4929Z" fill="#FFB629"/>
    <path d="M14.6144 32.3462C15.2798 31.6808 15.2798 30.6019 14.6144 29.9365C13.949 29.2712 12.8702 29.2712 12.2048 29.9365C11.5394 30.6019 11.5394 31.6808 12.2048 32.3462C12.8702 33.0116 13.949 33.0116 14.6144 32.3462Z" fill="#002946" stroke="#B1C3E9" stroke-width="1.13987"/>
    <path d="M26.6582 32.845C27.5992 32.845 28.3621 32.0821 28.3621 31.1411C28.3621 30.2001 27.5992 29.4373 26.6582 29.4373C25.7172 29.4373 24.9543 30.2001 24.9543 31.1411C24.9543 32.0821 25.7172 32.845 26.6582 32.845Z" fill="#002946" stroke="#B1C3E9" stroke-width="1.13987"/>
</svg>